<?xml version="1.0" encoding="UTF-8" standalone="no"?>
<!-- Created with Inkscape (http://www.inkscape.org/) -->

<svg
   xmlns:dc="http://purl.org/dc/elements/1.1/"
   xmlns:cc="http://creativecommons.org/ns#"
   xmlns:rdf="http://www.w3.org/1999/02/22-rdf-syntax-ns#"
   xmlns:svg="http://www.w3.org/2000/svg"
   xmlns="http://www.w3.org/2000/svg"
   xmlns:sodipodi="http://sodipodi.sourceforge.net/DTD/sodipodi-0.dtd"
   xmlns:inkscape="http://www.inkscape.org/namespaces/inkscape"
   width="450"
   height="50"
   viewBox="0 0 119.0625 13.229167"
   version="1.1"
   id="svg8"
   inkscape:version="0.92.1 r15371"
   sodipodi:docname="signs.svg">
  <defs
     id="defs2" />
  <sodipodi:namedview
     id="base"
     pagecolor="#ffffff"
     bordercolor="#666666"
     borderopacity="1.0"
     inkscape:pageopacity="0.0"
     inkscape:pageshadow="2"
     inkscape:zoom="9.9842787"
     inkscape:cx="391.04828"
     inkscape:cy="10.589001"
     inkscape:document-units="mm"
     inkscape:current-layer="layer1"
     showgrid="true"
     units="px"
     inkscape:window-width="1920"
     inkscape:window-height="1051"
     inkscape:window-x="-9"
     inkscape:window-y="-9"
     inkscape:window-maximized="1"
     objecttolerance="1"
     gridtolerance="1"
     guidetolerance="1">
    <inkscape:grid
       type="xygrid"
       id="grid4485"
       spacingx="13.229167"
       spacingy="13.229167"
       snapvisiblegridlinesonly="false" />
  </sodipodi:namedview>
  <metadata
     id="metadata5">
    <rdf:RDF>
      <cc:Work
         rdf:about="">
        <dc:format>image/svg+xml</dc:format>
        <dc:type
           rdf:resource="http://purl.org/dc/dcmitype/StillImage" />
        <dc:title></dc:title>
      </cc:Work>
    </rdf:RDF>
  </metadata>
  <g
     inkscape:label="Layer 1"
     inkscape:groupmode="layer"
     id="layer1"
     transform="translate(0,-283.77082)">
    <g
       style="stroke:#5bffff;stroke-width:3.72395754;stroke-miterlimit:4;stroke-dasharray:none;stroke-opacity:1"
       transform="matrix(0.16111892,0,0,0.16111892,81.969838,239.5236)"
       id="g4560">
      <path
         inkscape:connector-curvature="0"
         id="path4558"
         d="m 22.452108,339.21212 c -0.41738,-0.49643 -4.6284,-4.98937 -9.35783,-9.98431 -14.07996,-14.8704 -13.86462,-14.63027 -14.91855,-16.63591 -1.31158,-2.49594 -1.73664,-3.96142 -1.92581,-6.63967 -0.50972,-7.21634 4.61223,-14.15689 11.49957,-15.58262 1.79962,-0.37253 5.45038,-0.37253 7.25,0 2.35758,0.48804 5.09339,1.96354 7.03587,3.79467 l 1.77455,1.67283 1.82628,-1.6977 c 3.07914,-2.86238 6.60019,-4.20447 10.87372,-4.14468 4.22721,0.0591 8.66427,2.05807 11.23383,5.06094 3.03617,3.54817 4.31611,8.68086 3.32777,13.34473 -0.72877,3.43895 -2.14005,5.58917 -7.13741,10.87451 -2.48257,2.62563 -7.88923,8.35239 -12.01479,12.72614 -4.91164,5.20712 -7.70941,7.98014 -8.10468,8.03298 -0.42112,0.0563 -0.83312,-0.19222 -1.36252,-0.82191 z"
         style="fill:#050000;fill-opacity:1;stroke:#5bffff;stroke-width:3.72395754;stroke-miterlimit:4;stroke-dasharray:none;stroke-opacity:1" />
    </g>
    <path
       style="fill:#000000;stroke:#5bffff;stroke-width:0.60000002;stroke-miterlimit:4;stroke-dasharray:none;stroke-opacity:1"
       d="m 45.103681,294.09569 c -1.034444,-0.0738 -1.969874,-0.58861 -2.604658,-1.43348 -0.280787,-0.37373 -0.523246,-0.9125 -0.618969,-1.37545 -0.09628,-0.46566 -0.09906,-0.97767 -0.0078,-1.42861 0.108858,-0.53765 0.331754,-1.01986 0.682455,-1.47642 0.103078,-0.1342 0.438949,-0.47288 0.580615,-0.58549 0.259925,-0.2066 0.667837,-0.43785 0.964316,-0.54668 0.358057,-0.13144 0.814903,-0.21957 1.138266,-0.21957 h 0.09937 l 0.330789,-0.32732 c 0.233888,-0.23143 0.346419,-0.33456 0.384147,-0.35203 0.06685,-0.0309 0.241648,-0.0412 0.34736,-0.0205 0.15243,0.0299 0.478087,0.1539 0.468188,0.17821 -0.01066,0.0262 -0.218795,0.29554 -0.228613,0.29587 -0.0065,2.2e-4 -0.05187,-0.0152 -0.100783,-0.0341 -0.104119,-0.0403 -0.273786,-0.0789 -0.301106,-0.0684 -0.06574,0.0253 0.03582,0.30933 0.22118,0.6187 0.08763,0.14628 0.125738,0.19804 0.139494,0.18954 0.0058,-0.003 0.149766,-0.18761 0.319865,-0.40891 0.170101,-0.22129 0.313705,-0.40509 0.31912,-0.40843 0.0054,-0.003 0.01933,0.0191 0.03091,0.05 0.03223,0.0858 0.131556,0.28034 0.197654,0.38713 0.135431,0.21879 0.389326,0.54046 0.566904,0.71822 0.185992,0.1862 0.56496,0.48977 0.77062,0.61733 0.10661,0.0662 0.301585,0.16619 0.370639,0.19021 0.02446,0.008 0.04447,0.0185 0.04447,0.0222 0,0.003 -0.186411,0.14537 -0.414248,0.3148 -0.227836,0.16943 -0.414589,0.31167 -0.415006,0.31608 -0.0013,0.0138 0.223928,0.14969 0.378677,0.2284 0.16934,0.0861 0.329935,0.14054 0.398349,0.13495 l 0.0463,-0.003 -0.0019,-0.056 c -0.0022,-0.0652 -0.02813,-0.15077 -0.07776,-0.2565 -0.01944,-0.0414 -0.03082,-0.0798 -0.02528,-0.0853 0.0056,-0.006 0.0741,-0.058 0.152358,-0.11668 l 0.142287,-0.1067 0.02665,0.0438 c 0.07177,0.11792 0.146107,0.34363 0.16197,0.49183 0.0092,0.0855 -0.0095,0.20639 -0.04295,0.27912 -0.01851,0.0402 -0.110677,0.14161 -0.335883,0.36962 l -0.310372,0.31421 -0.01316,0.21936 c -0.06431,1.07142 -0.557356,1.99524 -1.40356,2.62984 -0.547104,0.41029 -1.214568,0.65509 -1.912389,0.70136 -0.208958,0.0139 -0.26761,0.0138 -0.468565,-5.6e-4 z m 0.604443,-0.39681 c 0.376817,-0.0438 0.686426,-0.13555 1.037793,-0.30739 0.332191,-0.16248 0.575291,-0.33723 0.848722,-0.61014 0.35843,-0.35774 0.602933,-0.74899 0.75246,-1.20408 0.07567,-0.23029 0.146831,-0.5769 0.14755,-0.71861 l 2.25e-4,-0.0428 -0.115613,-0.007 c -0.15178,-0.008 -0.295838,-0.0551 -0.515873,-0.16665 -0.778283,-0.39446 -1.849218,-1.39196 -2.412076,-2.24666 -0.230733,-0.35037 -0.387711,-0.74602 -0.369238,-0.93062 l 0.0038,-0.0382 -0.06522,0.003 c -0.176587,0.009 -0.532526,0.0902 -0.750326,0.16957 -0.904321,0.32942 -1.628112,1.07165 -1.923986,1.97298 -0.194003,0.59099 -0.209865,1.22698 -0.04524,1.81416 0.322757,1.15126 1.269373,2.03619 2.429057,2.27076 0.29811,0.0602 0.674342,0.0759 0.977946,0.0405 z M 44.97918,293.2958 c -0.270277,-0.0367 -0.552874,-0.11725 -0.78851,-0.22476 -0.772686,-0.35251 -1.341544,-1.0514 -1.522272,-1.87026 -0.05409,-0.24506 -0.06053,-0.3107 -0.06025,-0.6136 2.25e-4,-0.24884 0.0042,-0.31208 0.02713,-0.44094 0.05084,-0.28479 0.145636,-0.56633 0.270372,-0.80305 0.103552,-0.1965 0.164804,-0.28446 0.211755,-0.30409 0.07964,-0.0333 0.159929,-0.0168 0.215086,0.044 0.05592,0.0617 0.05748,0.0717 0.0649,0.4191 0.0079,0.37024 0.02482,0.48763 0.09841,0.68357 0.05328,0.14185 0.105324,0.2247 0.203076,0.3233 0.135107,0.13625 0.296441,0.21389 0.519788,0.25012 0.236036,0.0382 0.295035,0.0255 0.819795,-0.1772 0.46148,-0.17829 1.07882,-0.24496 1.452518,-0.15688 0.277529,0.0654 0.521309,0.16978 0.691745,0.29616 0.320214,0.23742 0.496789,0.54979 0.51466,0.91046 0.01124,0.22679 -0.0375,0.36477 -0.209597,0.59331 -0.442379,0.58749 -1.110313,0.97581 -1.842247,1.07107 -0.170825,0.0222 -0.501432,0.022 -0.666366,-2.9e-4 z m 3.680878,-3.06594 c 0.112172,-0.11168 0.19959,-0.2069 0.194271,-0.21146 -0.0053,-0.005 -0.03636,-0.018 -0.06896,-0.0298 -0.118812,-0.0431 -0.320361,-0.15168 -0.523387,-0.28199 -0.926815,-0.59481 -2.034851,-1.80261 -2.341304,-2.55211 -0.02133,-0.0521 -0.04029,-0.0969 -0.04215,-0.0994 -0.0019,-0.002 -0.09486,0.0828 -0.206709,0.18964 l -0.203351,0.19421 0.0059,0.0713 c 0.01693,0.20289 0.200128,0.55407 0.488311,0.9361 0.202894,0.26896 0.350441,0.43597 0.645627,0.73082 0.276429,0.2761 0.448783,0.43205 0.694851,0.62869 0.466297,0.37264 0.895449,0.61071 1.127818,0.62567 0.01771,10e-4 0.08503,-0.058 0.229032,-0.20156 z m 0.777464,-1.89444 c -0.308214,-0.0906 -0.697813,-0.36004 -1.097821,-0.75932 -0.222529,-0.22213 -0.374826,-0.40392 -0.512163,-0.61133 -0.168268,-0.25412 -0.257034,-0.45795 -0.265918,-0.61065 -0.0044,-0.0762 -0.0013,-0.0964 0.02235,-0.1414 0.03587,-0.0684 0.08777,-0.0957 0.181725,-0.0957 0.429536,0 1.304287,0.69084 1.779134,1.40508 0.271757,0.40877 0.338274,0.73534 0.166394,0.8169 -0.05297,0.0251 -0.181766,0.0234 -0.273703,-0.003 z"
       id="path4511-1"
       inkscape:connector-curvature="0"
       sodipodi:nodetypes="cssssccscsscccccccsccccccsccscccccscsccccccsccccsscccssccccssscccscccscscscssssscscccccscccccssscccscccssccc" />
    <path
       style="fill:#000000;stroke:none;stroke-width:0.05;stroke-miterlimit:4;stroke-dasharray:none;stroke-opacity:1"
       d="m 45.14083,294.10661 c -1.034444,-0.0738 -1.969874,-0.58861 -2.604658,-1.43348 -0.280787,-0.37373 -0.523246,-0.9125 -0.618969,-1.37545 -0.09628,-0.46566 -0.09906,-0.97767 -0.0078,-1.42861 0.108858,-0.53765 0.331754,-1.01986 0.682455,-1.47642 0.103078,-0.1342 0.438949,-0.47288 0.580615,-0.58549 0.259925,-0.2066 0.667837,-0.43785 0.964316,-0.54668 0.358057,-0.13144 0.814903,-0.21957 1.138266,-0.21957 h 0.09937 l 0.330789,-0.32732 c 0.233888,-0.23143 0.346419,-0.33456 0.384147,-0.35203 0.06685,-0.0309 0.241648,-0.0412 0.34736,-0.0205 0.15243,0.0299 0.478087,0.1539 0.468188,0.17821 -0.01066,0.0262 -0.218795,0.29554 -0.228613,0.29587 -0.0065,2.2e-4 -0.05187,-0.0152 -0.100783,-0.0341 -0.104119,-0.0403 -0.273786,-0.0789 -0.301106,-0.0684 -0.06574,0.0253 0.03582,0.30933 0.22118,0.6187 0.08763,0.14628 0.125738,0.19804 0.139494,0.18954 0.0058,-0.003 0.149766,-0.18761 0.319865,-0.40891 0.170101,-0.22129 0.313705,-0.40509 0.31912,-0.40843 0.0054,-0.003 0.01933,0.0191 0.03091,0.05 0.03223,0.0858 0.131556,0.28034 0.197654,0.38713 0.135431,0.21879 0.389326,0.54046 0.566904,0.71822 0.185992,0.1862 0.56496,0.48977 0.77062,0.61733 0.10661,0.0662 0.301585,0.16619 0.370639,0.19021 0.02446,0.008 0.04447,0.0185 0.04447,0.0222 0,0.003 -0.186411,0.14537 -0.414248,0.3148 -0.227836,0.16943 -0.414589,0.31167 -0.415006,0.31608 -0.0013,0.0138 0.223928,0.14969 0.378677,0.2284 0.16934,0.0861 0.329935,0.14054 0.398349,0.13495 l 0.0463,-0.003 -0.0019,-0.056 c -0.0022,-0.0652 -0.02813,-0.15077 -0.07776,-0.2565 -0.01944,-0.0414 -0.03082,-0.0798 -0.02528,-0.0853 0.0056,-0.006 0.0741,-0.058 0.152358,-0.11668 l 0.142287,-0.1067 0.02665,0.0438 c 0.07177,0.11792 0.146107,0.34363 0.16197,0.49183 0.0092,0.0855 -0.0095,0.20639 -0.04295,0.27912 -0.01851,0.0402 -0.110677,0.14161 -0.335883,0.36962 l -0.310372,0.31421 -0.01316,0.21936 c -0.06431,1.07142 -0.557356,1.99524 -1.40356,2.62984 -0.547104,0.41029 -1.214568,0.65509 -1.912389,0.70136 -0.208958,0.0139 -0.26761,0.0138 -0.468565,-5.6e-4 z m 0.604443,-0.39681 c 0.376817,-0.0438 0.686426,-0.13555 1.037793,-0.30739 0.332191,-0.16248 0.575291,-0.33723 0.848722,-0.61014 0.35843,-0.35774 0.602933,-0.74899 0.75246,-1.20408 0.07567,-0.23029 0.146831,-0.5769 0.14755,-0.71861 l 2.25e-4,-0.0428 -0.115613,-0.007 c -0.15178,-0.008 -0.295838,-0.0551 -0.515873,-0.16665 -0.778283,-0.39446 -1.849218,-1.39196 -2.412076,-2.24666 -0.230733,-0.35037 -0.387711,-0.74602 -0.369238,-0.93062 l 0.0038,-0.0382 -0.06522,0.003 c -0.176586,0.009 -0.532526,0.0902 -0.750325,0.16957 -0.904321,0.32942 -1.628112,1.07165 -1.923986,1.97298 -0.194003,0.59099 -0.209865,1.22698 -0.04524,1.81416 0.322757,1.15126 1.269373,2.03619 2.429057,2.27076 0.29811,0.0602 0.674341,0.0759 0.977946,0.0405 z m 2.951934,-3.46902 c 0.112172,-0.11168 0.19959,-0.2069 0.194271,-0.21146 -0.0053,-0.005 -0.03636,-0.018 -0.06896,-0.0298 -0.118812,-0.0431 -0.320361,-0.15168 -0.523387,-0.28199 -0.926815,-0.59481 -2.034851,-1.80261 -2.341304,-2.55211 -0.02133,-0.0521 -0.04029,-0.0969 -0.04215,-0.0994 -0.0019,-0.002 -0.09486,0.0828 -0.206709,0.18964 l -0.203351,0.19421 0.0059,0.0713 c 0.01693,0.20289 0.200128,0.55407 0.488311,0.9361 0.202894,0.26896 0.350441,0.43597 0.645627,0.73082 0.276429,0.2761 0.448783,0.43205 0.694851,0.62869 0.466297,0.37264 0.895449,0.61071 1.127818,0.62567 0.01771,10e-4 0.08503,-0.058 0.229032,-0.20156 z m 0.777464,-1.89444 c -0.308214,-0.0906 -0.697813,-0.36004 -1.097821,-0.75932 -0.222529,-0.22213 -0.374826,-0.40392 -0.512163,-0.61133 -0.168268,-0.25412 -0.257034,-0.45795 -0.265918,-0.61065 -0.0044,-0.0762 -0.0013,-0.0964 0.02235,-0.1414 0.03587,-0.0684 0.08777,-0.0957 0.181725,-0.0957 0.429536,0 1.304287,0.69084 1.779134,1.40508 0.271757,0.40877 0.338274,0.73534 0.166394,0.8169 -0.05297,0.0251 -0.181766,0.0234 -0.273703,-0.003 z"
       id="path4511-3"
       inkscape:connector-curvature="0"
       sodipodi:nodetypes="cssssccscsscccccccsccccccsccscccccscsccccccsccccsscccssccccssscccccscccccssscccccccsscccc" />
    <path
       style="fill:#5bffff;fill-opacity:1;stroke:#5bffff;stroke-width:0.60000002;stroke-miterlimit:4;stroke-dasharray:none;stroke-opacity:1"
       d="m 5.225458,294.39561 c -0.186081,-0.10202 -0.261727,-0.11849 -0.5222387,-0.11025 -1.2258706,0.0353 -1.1647365,0.0392 -1.3835073,-0.062 -0.39928,-0.1844 -1.2927089,-1.20632 -1.5694866,-1.79544 -0.1045031,-0.22246 -0.1324465,-0.34135 -0.1331802,-0.56577 -0.00103,-0.3131 0.046117,-0.42351 0.384435,-0.90049 0.2508389,-0.35351 0.3698747,-0.6816 0.4411903,-1.21547 0.073225,-0.5482 0.2699975,-1.17192 0.5479758,-1.73695 0.3722563,-0.75657 0.5888397,-1.0005 0.9825243,-1.10651 0.100172,-0.0275 0.4327057,-0.0455 0.7389674,-0.0416 0.6255337,0.008 0.6318987,0.008 1.1482014,-0.22717 0.6383427,-0.28995 1.1205444,-0.26915 1.5903421,0.0691 0.116537,0.084 0.259973,0.18676 0.318743,0.22875 0.08216,0.0585 0.2028697,0.0777 0.5222387,0.082 0.4870197,0.008 0.6810454,0.0773 1.0404084,0.37744 0.2931737,0.24483 0.5851387,0.38843 1.0773694,0.53007 0.212608,0.0612 0.435517,0.14674 0.495357,0.19029 0.08549,0.0624 0.172945,0.26955 0.4082,0.96746 0.295328,0.87605 0.29946,0.89464 0.303505,1.36688 0.0037,0.43151 -0.0096,0.51822 -0.134812,0.87958 -0.158527,0.45748 -0.378272,0.90982 -0.568854,1.17093 -0.262963,0.36018 -0.837918,0.49794 -1.3519767,0.32369 -0.2380287,-0.0808 -0.3082787,-0.0875 -0.4917407,-0.0482 -0.4118367,0.0883 -0.8913544,0.0196 -1.0826204,-0.15224 -0.07688,-0.0694 -0.08901,-0.0671 -0.2243627,0.0471 -0.226231,0.19069 -0.4137157,0.24797 -0.9264447,0.2825 -0.2632957,0.0196 -0.5318147,0.0534 -0.5967104,0.0793 l -0.117992,0.0471 0.09004,0.20363 c 0.0689,0.15576 0.08598,0.26719 0.07274,0.47521 -0.02025,0.31781 -0.15188,0.52878 -0.405285,0.649 -0.2650807,0.12555 -0.4128577,0.12398 -0.6530304,-0.008 z"
       id="path4498"
       inkscape:connector-curvature="0"
       sodipodi:nodetypes="ccccccccccccccccccccccccccccccccc" />
    <path
       style="opacity:1;fill:#07fd07;fill-opacity:1;fill-rule:nonzero;stroke:#00b400;stroke-width:0.2019611;stroke-linecap:round;stroke-linejoin:round;stroke-miterlimit:4;stroke-dasharray:none;stroke-dashoffset:0;stroke-opacity:1;paint-order:markers stroke fill"
       d="m 48.463519,290.95908 v 2.04933 h -2.088683 v 0.95329 h 2.088683 v 2.15965 H 49.4168 v -2.15965 h 2.120202 v -0.95329 H 49.4168 v -2.04933 z"
       id="rect4537"
       inkscape:connector-curvature="0" />
    <path
       style="opacity:1;fill:#000000;fill-opacity:1;fill-rule:nonzero;stroke:#5bffff;stroke-width:0.71579999;stroke-linecap:round;stroke-linejoin:round;stroke-miterlimit:4;stroke-dasharray:none;stroke-dashoffset:0;stroke-opacity:1;paint-order:markers stroke fill"
       d="m 16.872503,289.39092 -1.5869,1.344 1.5869,1.23315 v -0.85256 h 6.534972 v 0.87033 l 1.5869,-1.23315 -1.5869,-1.34401 v 0.94564 h -6.534972 z"
       id="rect4555"
       inkscape:connector-curvature="0" />
    <g
       id="g4670"
       transform="matrix(0.16111892,0,0,0.16111892,68.740663,239.5236)"
       style="stroke:#5bffff;stroke-width:3.72395754;stroke-miterlimit:4;stroke-dasharray:none;stroke-opacity:1">
      <path
         style="fill:#050000;fill-opacity:1;stroke:#5bffff;stroke-width:3.72395754;stroke-miterlimit:4;stroke-dasharray:none;stroke-opacity:1"
         d="m 22.452108,339.21212 c -0.41738,-0.49643 -4.6284,-4.98937 -9.35783,-9.98431 -14.07996,-14.8704 -13.86462,-14.63027 -14.91855,-16.63591 -1.31158,-2.49594 -1.73664,-3.96142 -1.92581,-6.63967 -0.50972,-7.21634 4.61223,-14.15689 11.49957,-15.58262 1.79962,-0.37253 5.45038,-0.37253 7.25,0 2.35758,0.48804 5.09339,1.96354 7.03587,3.79467 l 1.77455,1.67283 1.82628,-1.6977 c 3.07914,-2.86238 6.60019,-4.20447 10.87372,-4.14468 4.22721,0.0591 8.66427,2.05807 11.23383,5.06094 3.03617,3.54817 4.31611,8.68086 3.32777,13.34473 -0.72877,3.43895 -2.14005,5.58917 -7.13741,10.87451 -2.48257,2.62563 -7.88923,8.35239 -12.01479,12.72614 -4.91164,5.20712 -7.70941,7.98014 -8.10468,8.03298 -0.42112,0.0563 -0.83312,-0.19222 -1.36252,-0.82191 z"
         id="path4684"
         inkscape:connector-curvature="0" />
    </g>
    <path
       style="fill:#000000;stroke:#5bffff;stroke-width:0.3454341;stroke-miterlimit:4;stroke-dasharray:none;stroke-opacity:1"
       d="m 101.93477,294.17075 c -0.0802,-0.0216 -0.10038,-0.0328 -0.16376,-0.0913 -0.0521,-0.048 -0.0975,-0.12329 -0.11459,-0.19017 -0.0105,-0.0408 -0.01,-0.86605 0.001,-1.32313 l 0.008,-0.31223 -0.21032,-0.12382 c -0.11568,-0.0681 -0.36107,-0.21276 -0.54533,-0.32146 -0.62516,-0.36878 -0.76887,-0.4525 -0.77671,-0.4525 -0.007,0 -0.348187,0.74928 -0.423107,0.92862 -0.0603,0.14434 -0.1613,0.26155 -0.2648,0.30734 -0.124503,0.0551 -0.153293,0.0565 -1.144941,0.0569 -0.513976,2.9e-4 -0.950679,-0.004 -0.970452,-0.01 -0.09807,-0.0285 -0.180419,-0.10136 -0.2275,-0.20144 -0.02638,-0.056 -0.03042,-0.0802 -0.03042,-0.18219 0,-0.0957 0.0047,-0.12778 0.02541,-0.17251 0.0359,-0.0776 0.111658,-0.15513 0.183515,-0.18762 l 0.06144,-0.0278 0.78463,-0.003 c 0.431546,-0.002 0.784629,-0.007 0.784629,-0.0106 0,-0.008 0.07294,-0.34369 0.238607,-1.09762 l 0.109919,-0.50023 0.141251,-0.24619 c 0.277142,-0.48307 0.597962,-1.10776 0.690089,-1.34372 l 0.02,-0.0514 -0.0445,0.008 c -0.0245,0.004 -0.196727,0.0375 -0.382727,0.0734 l -0.338174,0.0655 -0.336215,0.48709 c -0.240706,0.34871 -0.34833,0.49504 -0.378862,0.51511 -0.09209,0.0605 -0.21042,0.0607 -0.329272,4.1e-4 -0.09592,-0.0486 -0.1535,-0.15237 -0.15392,-0.27737 -2.77e-4,-0.0882 0.0036,-0.0971 0.147878,-0.33214 0.05238,-0.0854 0.192924,-0.31657 0.312312,-0.51376 0.289037,-0.47737 0.266637,-0.4452 0.315365,-0.45292 0.02263,-0.003 0.403482,-0.0778 0.846338,-0.16491 0.442867,-0.0871 0.816297,-0.15832 0.829847,-0.1582 0.0242,2.8e-4 0.80503,0.28119 0.8535,0.30713 0.0136,0.007 0.10744,0.0907 0.20847,0.18525 0.3205,0.3001 0.81604,0.76019 0.8614,0.79978 0.0274,0.0238 0.0493,0.0348 0.0588,0.029 0.0174,-0.0105 0.16347,-0.12471 0.58921,-0.4605 0.16709,-0.13179 0.32164,-0.24707 0.34345,-0.25618 0.1102,-0.046 0.2553,-0.004 0.35015,0.10151 0.0811,0.0902 0.10228,0.22703 0.0529,0.34185 -0.0216,0.0502 -0.0557,0.0849 -0.23216,0.23687 -0.11379,0.098 -0.27036,0.23425 -0.34794,0.30287 -0.38432,0.33993 -0.68394,0.59167 -0.72188,0.60654 -0.0232,0.009 -0.0514,0.0217 -0.0626,0.028 -0.0283,0.0159 -0.0955,0.0143 -0.13479,-0.003 -0.0304,-0.0136 -0.26153,-0.19583 -0.78306,-0.61757 -0.1152,-0.0932 -0.21139,-0.16746 -0.21375,-0.16509 -0.005,0.004 -0.53424,1.14449 -0.57375,1.23492 -0.0134,0.0306 -0.022,0.0577 -0.0191,0.0602 0.008,0.007 0.63714,0.46074 1.02196,0.7368 0.45794,0.32853 0.53329,0.40793 0.58162,0.61293 0.0266,0.11269 0.0264,1.84066 -1.4e-4,1.94382 -0.0361,0.13986 -0.14149,0.24532 -0.28122,0.28126 -0.0849,0.0219 -0.13364,0.0218 -0.21561,-2.9e-4 z m -3.875518,-3.1809 c -0.181024,-0.005 -0.585681,-0.0244 -0.899238,-0.0441 -0.313558,-0.0198 -0.64416,-0.0389 -0.734673,-0.0426 -0.214508,-0.009 -0.238169,-0.0129 -0.271636,-0.0491 -0.04861,-0.0524 -0.0321,-0.14613 0.03179,-0.18032 0.03764,-0.0201 2.659324,-0.16282 2.677397,-0.1457 0.0055,0.005 -0.07113,0.43659 -0.07999,0.45027 -0.0099,0.0153 -0.352385,0.0207 -0.723648,0.0115 z m -0.182198,-0.71639 c -0.151931,-0.005 -0.934797,-0.0283 -1.739703,-0.0515 -0.804907,-0.0231 -1.47454,-0.0444 -1.488073,-0.0473 -0.01354,-0.003 -0.03866,-0.0193 -0.05584,-0.0365 -0.05462,-0.0546 -0.03514,-0.15476 0.03532,-0.18155 0.02593,-0.01 0.75068,-0.0351 2.501867,-0.087 0.323256,-0.01 0.653858,-0.0204 0.734672,-0.024 l 0.146934,-0.007 0.0255,0.0452 c 0.05984,0.10598 0.161013,0.20735 0.368706,0.36943 l 0.04072,0.0318 -0.146934,-8.6e-4 c -0.08081,-5.3e-4 -0.271241,-0.005 -0.423171,-0.0107 z m -0.04114,-0.74661 c -0.0194,-0.002 -0.506041,-0.0224 -1.081436,-0.0456 -0.575394,-0.0231 -1.069317,-0.0448 -1.097606,-0.0484 -0.08735,-0.0108 -0.137252,-0.0849 -0.106784,-0.15846 0.03141,-0.0758 -0.03978,-0.0695 1.255144,-0.11195 0.650923,-0.0213 1.211882,-0.039 1.246575,-0.0392 l 0.06308,-4.1e-4 -0.04127,0.0457 c -0.05307,0.0587 -0.108271,0.17484 -0.13389,0.28158 -0.02174,0.0906 -0.01528,0.0858 -0.103812,0.0769 z m 3.602836,-1.61037 c -0.15024,-0.0288 -0.30276,-0.10926 -0.40968,-0.21618 -0.0873,-0.0873 -0.14287,-0.17711 -0.18541,-0.29971 -0.0287,-0.0827 -0.0327,-0.11148 -0.0331,-0.24086 -4.2e-4,-0.13477 0.002,-0.15524 0.0354,-0.24736 0.0874,-0.2447 0.25764,-0.40654 0.51642,-0.49104 0.0414,-0.0136 0.10233,-0.0192 0.20571,-0.0195 0.12267,-2.8e-4 0.16053,0.004 0.22922,0.0269 0.23586,0.0781 0.4114,0.24965 0.49731,0.48603 0.0281,0.0775 0.0313,0.10242 0.0313,0.24491 0,0.1425 -0.003,0.16748 -0.0313,0.24491 -0.0441,0.12136 -0.0972,0.20517 -0.18684,0.29479 -0.14777,0.14776 -0.30098,0.21358 -0.5103,0.2192 -0.0711,0.002 -0.14253,8.6e-4 -0.15869,-0.002 z"
       id="path4668"
       inkscape:connector-curvature="0" />
    <path
       style="fill:#000000;stroke:#5bffff;stroke-width:0.60000002;stroke-miterlimit:4;stroke-dasharray:none;stroke-opacity:1"
       d="m 59.466568,294.92074 c -0.02178,-0.01 -0.06052,-0.0275 -0.0861,-0.0393 -0.02557,-0.0118 -0.05231,-0.0215 -0.0594,-0.0215 -0.0071,0 -0.01291,-0.005 -0.01291,-0.0101 0,-0.005 -0.01145,-0.0131 -0.02546,-0.0166 -0.014,-0.004 -0.05264,-0.0245 -0.08585,-0.0465 -0.03321,-0.022 -0.06461,-0.0399 -0.06978,-0.0399 -0.0052,0 -0.01108,-0.004 -0.01315,-0.009 -0.0031,-0.007 -0.06933,-0.0486 -0.267451,-0.16674 -0.06747,-0.0403 -0.264905,-0.1854 -0.290751,-0.21375 -0.0062,-0.007 -0.03678,-0.0325 -0.06789,-0.057 -0.03112,-0.0246 -0.07716,-0.0627 -0.102326,-0.0849 -0.02517,-0.0222 -0.07319,-0.0632 -0.106718,-0.0912 -0.03353,-0.028 -0.08453,-0.0713 -0.113342,-0.0962 -0.0288,-0.0249 -0.07731,-0.0657 -0.10779,-0.0905 -0.14653,-0.11968 -0.462004,-0.43297 -0.656057,-0.65153 -0.05017,-0.0565 -0.182526,-0.22269 -0.247091,-0.31024 -0.02295,-0.0311 -0.04961,-0.0668 -0.05926,-0.0792 -0.05907,-0.0762 -0.276369,-0.38705 -0.276369,-0.39534 0,-0.002 -0.02419,-0.0422 -0.05375,-0.088 -0.02956,-0.0459 -0.06015,-0.0933 -0.06797,-0.1055 -0.0078,-0.0122 -0.02045,-0.0349 -0.02806,-0.0505 -0.0076,-0.0155 -0.01692,-0.0309 -0.02068,-0.034 -0.0066,-0.005 -0.156087,-0.25976 -0.172916,-0.29419 -0.0046,-0.009 -0.02601,-0.0476 -0.04765,-0.0849 -0.02164,-0.0373 -0.04817,-0.0857 -0.05895,-0.10749 -0.01078,-0.0218 -0.02343,-0.0413 -0.02809,-0.0434 -0.0047,-0.002 -0.0085,-0.009 -0.0085,-0.0148 0,-0.01 -0.01067,-0.0361 -0.06292,-0.15402 -0.009,-0.0202 -0.02361,-0.0533 -0.03257,-0.0736 -0.02211,-0.0499 -0.05472,-0.12804 -0.07912,-0.18953 -0.01112,-0.028 -0.02984,-0.0718 -0.0416,-0.0974 -0.01177,-0.0256 -0.02139,-0.0538 -0.02139,-0.0628 0,-0.009 -0.0046,-0.0211 -0.01026,-0.027 -0.0057,-0.006 -0.01552,-0.0286 -0.02194,-0.0504 -0.0144,-0.0489 -0.0442,-0.13372 -0.05762,-0.16406 -0.0055,-0.0124 -0.0288,-0.0837 -0.05179,-0.15842 -0.02298,-0.0747 -0.04682,-0.15104 -0.05298,-0.16972 -0.0061,-0.0186 -0.01796,-0.0594 -0.02623,-0.0905 -0.0083,-0.0312 -0.02574,-0.0948 -0.03881,-0.14144 -0.03574,-0.12758 -0.08554,-0.32411 -0.107534,-0.42431 -0.0082,-0.0374 -0.02036,-0.0908 -0.02703,-0.11881 -0.02234,-0.0937 -0.03711,-0.16343 -0.05276,-0.24892 -0.0085,-0.0467 -0.02049,-0.10778 -0.02656,-0.13578 -0.03334,-0.1539 -0.08284,-0.81828 -0.11972,-1.60672 -0.03295,-0.70457 -0.03993,-0.88935 -0.04017,-1.06452 l -2.77e-4,-0.17631 0.05375,-0.0139 c 0.06309,-0.0163 0.198713,-0.0396 0.364906,-0.0624 0.06534,-0.009 0.126444,-0.0191 0.135779,-0.0225 0.0093,-0.003 0.07044,-0.0145 0.135778,-0.0245 0.06535,-0.0101 0.159541,-0.0252 0.209328,-0.0337 0.04978,-0.008 0.139502,-0.0231 0.199371,-0.0327 0.05987,-0.01 0.115877,-0.02 0.124463,-0.0232 0.0086,-0.003 0.0538,-0.0132 0.100475,-0.0222 0.116133,-0.0223 0.225247,-0.0462 0.339447,-0.0742 0.0529,-0.013 0.121636,-0.0289 0.15275,-0.0354 0.03112,-0.006 0.06141,-0.0164 0.06732,-0.0222 0.0059,-0.005 0.02296,-0.0104 0.03789,-0.0104 0.01493,0 0.04319,-0.007 0.0628,-0.0159 0.01961,-0.009 0.05602,-0.0212 0.08091,-0.0278 0.106259,-0.0281 0.171183,-0.0473 0.192353,-0.057 0.01245,-0.005 0.06846,-0.0255 0.124465,-0.044 0.129655,-0.0428 0.26504,-0.0908 0.294187,-0.10422 0.01245,-0.005 0.05573,-0.0236 0.09618,-0.0397 0.04045,-0.0161 0.08373,-0.034 0.09618,-0.0396 0.01245,-0.005 0.05573,-0.0236 0.09618,-0.0398 0.04045,-0.0162 0.08959,-0.0368 0.109202,-0.0458 0.01961,-0.009 0.04125,-0.0162 0.04809,-0.0162 0.0068,0 0.01243,-0.005 0.01243,-0.0113 0,-0.006 0.0078,-0.0113 0.01744,-0.0113 0.0096,0 0.0516,-0.0157 0.09335,-0.0349 0.04174,-0.0192 0.09881,-0.0454 0.126819,-0.0582 0.02801,-0.0128 0.1075,-0.0506 0.176655,-0.0839 0.06916,-0.0333 0.131527,-0.0606 0.138607,-0.0606 0.0071,0 0.01288,-0.005 0.01288,-0.0113 0,-0.006 0.0064,-0.0113 0.01414,-0.0113 0.0078,-10e-6 0.08474,-0.0357 0.171019,-0.0792 0.09666,-0.0488 0.170755,-0.0792 0.193032,-0.0792 0.02298,0 0.105167,0.035 0.225505,0.0962 0.104142,0.0529 0.19676,0.0962 0.205817,0.0962 0.0091,0 0.01647,0.005 0.01647,0.0113 0,0.006 0.0054,0.0113 0.01184,0.0113 0.0065,0 0.05107,0.0183 0.09901,0.0407 0.04794,0.0224 0.11517,0.0534 0.149399,0.0689 0.03423,0.0155 0.09533,0.0434 0.135778,0.0621 0.04045,0.0187 0.08882,0.0404 0.107493,0.0484 0.01867,0.008 0.05177,0.0227 0.07355,0.0326 0.02178,0.01 0.05361,0.0214 0.07072,0.0254 0.01711,0.004 0.03111,0.0113 0.03111,0.0162 0,0.005 0.014,0.0121 0.03112,0.0162 0.01711,0.004 0.04639,0.0141 0.06506,0.0226 0.01867,0.008 0.05742,0.0261 0.0861,0.0392 0.02869,0.0131 0.0602,0.0239 0.07005,0.0239 0.0098,0 0.02068,0.005 0.0241,0.01 0.0034,0.005 0.02534,0.0136 0.04873,0.018 0.02339,0.005 0.04509,0.0117 0.04821,0.0163 0.0031,0.005 0.05151,0.0226 0.107517,0.0401 0.05601,0.0175 0.106926,0.0356 0.11315,0.0402 0.0062,0.005 0.02914,0.0122 0.05092,0.0168 0.02178,0.005 0.0449,0.0125 0.05136,0.0177 0.0064,0.005 0.03193,0.0143 0.05658,0.0204 0.02465,0.006 0.06009,0.0163 0.07876,0.023 0.01867,0.007 0.07213,0.0225 0.118807,0.0353 0.04668,0.0127 0.10237,0.0288 0.12377,0.0357 0.04195,0.0135 0.141786,0.0373 0.23265,0.0556 0.03111,0.006 0.06676,0.0159 0.0792,0.0215 0.01245,0.005 0.05063,0.0154 0.08486,0.0217 0.03423,0.006 0.09024,0.017 0.124464,0.0239 0.123445,0.0246 0.188292,0.0368 0.280044,0.0522 0.05134,0.009 0.137901,0.0234 0.192353,0.0329 0.05446,0.009 0.152469,0.0246 0.217813,0.0338 0.06534,0.009 0.131535,0.0197 0.147094,0.0235 0.01556,0.004 0.07156,0.0139 0.124464,0.0227 0.135123,0.0225 0.255741,0.0451 0.325719,0.061 l 0.05982,0.0137 -0.0021,0.19415 c -0.0011,0.10679 -0.006,0.24762 -0.01069,0.31297 -0.0047,0.0654 -0.0142,0.29956 -0.02105,0.52048 -0.0068,0.22093 -0.0177,0.45514 -0.02413,0.52048 -0.0065,0.0653 -0.01665,0.22319 -0.02274,0.35077 -0.02242,0.47049 -0.04953,0.74164 -0.106916,1.06926 -0.0087,0.0498 -0.02326,0.12362 -0.03233,0.16407 -0.0091,0.0405 -0.02503,0.11682 -0.03549,0.16972 -0.01046,0.0529 -0.02348,0.10636 -0.02892,0.11881 -0.0054,0.0124 -0.01501,0.0481 -0.02124,0.0792 -0.02382,0.11876 -0.04718,0.213 -0.05771,0.23266 -0.006,0.0113 -0.01094,0.0308 -0.01094,0.0434 0,0.0127 -0.0071,0.0448 -0.01581,0.0715 -0.0087,0.0266 -0.02668,0.0867 -0.03999,0.13334 -0.03486,0.12236 -0.06891,0.22928 -0.07937,0.2493 -0.005,0.01 -0.01284,0.035 -0.01747,0.0566 -0.0047,0.0216 -0.01238,0.0443 -0.01723,0.0505 -0.0049,0.006 -0.01414,0.0291 -0.02063,0.0509 -0.01747,0.0587 -0.04594,0.13668 -0.0646,0.1771 -0.0091,0.0196 -0.01647,0.0408 -0.01647,0.0472 0,0.006 -0.0074,0.026 -0.01643,0.0435 -0.009,0.0176 -0.02814,0.0625 -0.04243,0.0999 -0.0143,0.0374 -0.02965,0.0695 -0.03412,0.0716 -0.0045,0.002 -0.0114,0.0211 -0.0154,0.0424 -0.004,0.0213 -0.01124,0.0388 -0.0161,0.0388 -0.0049,0 -0.01229,0.014 -0.01654,0.0311 -0.01354,0.0547 -0.264054,0.54911 -0.288069,0.56857 -0.0038,0.003 -0.0133,0.0184 -0.02102,0.034 -0.0077,0.0155 -0.02411,0.0436 -0.03642,0.0622 -0.01231,0.0186 -0.0287,0.0467 -0.03642,0.0622 -0.0077,0.0155 -0.01713,0.0308 -0.02092,0.034 -0.0038,0.003 -0.03381,0.0515 -0.06672,0.10749 -0.03291,0.056 -0.08719,0.14137 -0.120636,0.18968 -0.03344,0.0483 -0.0608,0.0905 -0.0608,0.0938 0,0.003 -0.0053,0.0121 -0.01166,0.0197 -0.0064,0.008 -0.03171,0.0417 -0.05624,0.0759 -0.02452,0.0342 -0.04869,0.0674 -0.05372,0.0736 -0.0051,0.006 -0.04963,0.0673 -0.09912,0.13578 -0.0495,0.0684 -0.09518,0.13065 -0.101528,0.13821 -0.02075,0.0247 -0.03435,0.0422 -0.06845,0.0877 -0.01848,0.0247 -0.04125,0.0533 -0.05058,0.0636 -0.0093,0.0103 -0.05738,0.0639 -0.106777,0.11918 -0.114175,0.12763 -0.490616,0.50348 -0.571053,0.57016 -0.03364,0.0279 -0.07947,0.0667 -0.101834,0.0862 -0.11603,0.10135 -0.24683,0.21442 -0.265911,0.22988 -0.01187,0.01 -0.03987,0.033 -0.06223,0.052 -0.02236,0.019 -0.06355,0.0521 -0.09154,0.0736 -0.02798,0.0214 -0.06108,0.0476 -0.07355,0.058 -0.117693,0.0983 -0.19501,0.15003 -0.41104,0.27527 -0.01073,0.006 -0.05504,0.034 -0.09845,0.0619 -0.12113,0.0775 -0.387369,0.20454 -0.42728,0.20379 -0.0075,-1.3e-4 -0.03155,-0.008 -0.05333,-0.0181 z m 0.120719,-0.3367 c 0.01761,-0.009 0.04986,-0.0235 0.07164,-0.0333 0.08257,-0.0368 0.165148,-0.0776 0.193981,-0.0961 0.01645,-0.0106 0.07501,-0.0461 0.130122,-0.0789 0.126672,-0.0756 0.135095,-0.0808 0.192577,-0.11842 0.02612,-0.0171 0.05093,-0.0311 0.05515,-0.0311 0.008,0 0.149625,-0.10813 0.16929,-0.12927 0.0062,-0.007 0.0495,-0.0426 0.09618,-0.0797 0.113783,-0.0906 0.112007,-0.0892 0.127686,-0.10288 0.0075,-0.007 0.05194,-0.0447 0.09861,-0.0846 0.04668,-0.0399 0.09038,-0.0778 0.09713,-0.0841 0.0068,-0.006 0.03948,-0.0345 0.07275,-0.0625 0.210736,-0.17741 0.542855,-0.51552 0.726679,-0.73978 0.0108,-0.0132 0.05766,-0.0749 0.104119,-0.13712 0.04645,-0.0622 0.0898,-0.1193 0.09632,-0.12682 0.0065,-0.008 0.01185,-0.0169 0.01185,-0.0207 0,-0.004 0.01783,-0.0288 0.03961,-0.0554 0.02178,-0.0266 0.03961,-0.0539 0.03961,-0.0608 0,-0.007 0.0064,-0.0165 0.01417,-0.0214 0.01328,-0.008 0.06788,-0.0818 0.0934,-0.12536 0.0063,-0.0107 0.03468,-0.0551 0.06314,-0.0987 0.02846,-0.0436 0.05519,-0.0868 0.0594,-0.0962 0.0042,-0.009 0.02765,-0.0476 0.05208,-0.0849 0.02444,-0.0373 0.05809,-0.0931 0.07479,-0.12394 0.0167,-0.0309 0.04347,-0.0767 0.05947,-0.10184 0.07109,-0.11177 0.206754,-0.38132 0.284996,-0.56626 0.01316,-0.0312 0.02852,-0.0667 0.03413,-0.0792 0.0056,-0.0124 0.02347,-0.0557 0.03969,-0.0962 0.01622,-0.0405 0.03682,-0.0896 0.04577,-0.1092 0.009,-0.0196 0.01626,-0.0435 0.01626,-0.0531 0,-0.01 0.0047,-0.0203 0.01033,-0.0238 0.0057,-0.004 0.01376,-0.0267 0.01796,-0.0515 0.0042,-0.0249 0.01165,-0.0476 0.01657,-0.0507 0.0049,-0.003 0.02258,-0.0502 0.03926,-0.10472 0.01668,-0.0545 0.03478,-0.10749 0.04022,-0.11761 0.0054,-0.0101 0.01347,-0.0382 0.01784,-0.0623 0.0044,-0.0241 0.01419,-0.0566 0.02183,-0.0721 0.0076,-0.0155 0.01723,-0.0501 0.02133,-0.0768 0.0041,-0.0267 0.01224,-0.0573 0.01809,-0.0679 0.0058,-0.0106 0.01633,-0.0447 0.02329,-0.0759 0.0069,-0.0311 0.01978,-0.0846 0.0285,-0.1188 0.02213,-0.0868 0.05626,-0.23158 0.07204,-0.30551 0.0073,-0.0342 0.02041,-0.0928 0.02913,-0.13013 0.05669,-0.24277 0.09778,-0.56622 0.118599,-0.93348 0.0061,-0.1089 0.01657,-0.25911 0.0231,-0.33378 0.0065,-0.0747 0.01657,-0.2809 0.02229,-0.45826 0.0057,-0.17736 0.01575,-0.41667 0.02227,-0.5318 0.01805,-0.31881 0.02148,-0.63228 0.0071,-0.64373 -0.0068,-0.005 -0.02751,-0.0124 -0.04618,-0.0158 -0.01867,-0.003 -0.07722,-0.0138 -0.130123,-0.0232 -0.05289,-0.009 -0.103813,-0.02 -0.113148,-0.0235 -0.0093,-0.004 -0.07298,-0.0145 -0.141436,-0.0242 -0.140981,-0.02 -0.285979,-0.043 -0.418653,-0.066 -0.04978,-0.009 -0.143982,-0.0245 -0.209325,-0.0351 -0.06534,-0.0106 -0.12899,-0.0236 -0.141436,-0.0289 -0.01245,-0.005 -0.05063,-0.013 -0.08486,-0.0172 -0.03423,-0.004 -0.07048,-0.0119 -0.08057,-0.0173 -0.01009,-0.005 -0.04573,-0.0146 -0.07921,-0.0206 -0.05735,-0.0103 -0.166389,-0.0375 -0.301313,-0.0751 -0.03267,-0.009 -0.08648,-0.0235 -0.119579,-0.032 -0.03309,-0.008 -0.07095,-0.0212 -0.08412,-0.0283 -0.01316,-0.007 -0.03242,-0.0128 -0.04278,-0.0128 -0.01036,0 -0.03488,-0.007 -0.05449,-0.0158 -0.01961,-0.009 -0.07384,-0.0275 -0.120516,-0.0418 -0.04668,-0.0143 -0.09009,-0.0298 -0.09648,-0.0344 -0.0064,-0.005 -0.05222,-0.0215 -0.101834,-0.0375 -0.04962,-0.016 -0.100399,-0.0339 -0.112845,-0.0398 -0.01245,-0.006 -0.05573,-0.0239 -0.09618,-0.04 -0.04045,-0.0161 -0.08373,-0.0338 -0.09618,-0.0393 -0.01245,-0.005 -0.043,-0.0187 -0.06789,-0.0293 -0.0249,-0.0106 -0.06563,-0.0283 -0.09052,-0.0394 -0.0249,-0.0111 -0.07072,-0.031 -0.101834,-0.0442 -0.03111,-0.0132 -0.07009,-0.0315 -0.08661,-0.0406 -0.01652,-0.009 -0.03816,-0.0165 -0.04809,-0.0165 -0.0099,0 -0.01806,-0.005 -0.01806,-0.0113 0,-0.006 -0.0059,-0.0113 -0.01305,-0.0113 -0.0071,0 -0.039,-0.0122 -0.07072,-0.0272 -0.182589,-0.0861 -0.2332,-0.1086 -0.243839,-0.1086 -0.0065,0 -0.01184,-0.005 -0.01184,-0.0113 0,-0.006 -0.006,-0.0113 -0.01328,-0.0113 -0.01528,0 -0.204373,-0.0922 -0.213293,-0.10402 -0.0033,-0.005 -0.02949,-0.0142 -0.05828,-0.0218 l -0.05235,-0.014 -0.196307,0.0971 c -0.182279,0.0902 -0.282562,0.13779 -0.439578,0.20877 -0.03423,0.0155 -0.08769,0.0402 -0.118806,0.055 -0.03111,0.0148 -0.107491,0.0477 -0.169723,0.0732 -0.06223,0.0255 -0.123334,0.051 -0.135781,0.0567 -0.01245,0.005 -0.05572,0.0235 -0.09618,0.0397 -0.04045,0.0162 -0.08959,0.0368 -0.109202,0.0458 -0.01961,0.009 -0.04278,0.0162 -0.05149,0.0162 -0.0087,0 -0.02066,0.005 -0.02658,0.0103 -0.0059,0.005 -0.02857,0.0155 -0.05035,0.0219 -0.06156,0.0181 -0.139656,0.0462 -0.15878,0.057 -0.0095,0.005 -0.03483,0.0136 -0.0562,0.0183 -0.02137,0.005 -0.04666,0.0126 -0.0562,0.0176 -0.0095,0.005 -0.06317,0.0227 -0.119177,0.0394 -0.05601,0.0167 -0.123652,0.0375 -0.150318,0.0461 -0.02667,0.009 -0.05819,0.0158 -0.07005,0.0158 -0.01187,0 -0.02441,0.005 -0.0279,0.0103 -0.0035,0.005 -0.03306,0.0139 -0.06573,0.0184 -0.03267,0.005 -0.07204,0.0129 -0.08751,0.0187 -0.0922,0.0349 -0.734765,0.15616 -1.097714,0.20717 -0.06534,0.009 -0.12899,0.0196 -0.141435,0.0232 -0.01245,0.004 -0.071,0.014 -0.130122,0.0232 -0.174934,0.0273 -0.182518,0.0292 -0.188648,0.0451 -0.0083,0.0216 0.01623,0.91891 0.02995,1.09654 0.0062,0.0809 0.01675,0.25911 0.02335,0.39601 0.02099,0.43578 0.07057,1.08078 0.08485,1.10389 0.0036,0.005 0.01357,0.05 0.02223,0.0982 0.0087,0.0482 0.02398,0.12597 0.03403,0.17263 0.01004,0.0467 0.02505,0.11797 0.03334,0.15842 0.01675,0.0817 0.04613,0.2025 0.0619,0.25458 0.0057,0.0187 0.01354,0.0518 0.01753,0.0736 0.004,0.0217 0.0118,0.0498 0.01734,0.0622 0.0055,0.0124 0.01814,0.0532 0.02797,0.0905 0.02604,0.099 0.04675,0.17283 0.06822,0.24328 0.01043,0.0343 0.02592,0.0851 0.03441,0.11314 0.01713,0.0565 0.08479,0.24807 0.105164,0.29776 0.0071,0.0176 0.01306,0.0382 0.01306,0.0459 0,0.008 0.0075,0.0239 0.01661,0.036 0.0091,0.012 0.01678,0.0286 0.01697,0.0368 2.77e-4,0.0134 0.01807,0.0573 0.06242,0.15496 0.0085,0.0186 0.02664,0.0619 0.04036,0.0962 0.02429,0.0606 0.07272,0.16936 0.110717,0.24855 0.01688,0.0352 0.189807,0.34298 0.216348,0.38508 0.0059,0.009 0.04264,0.0704 0.08168,0.13578 0.03904,0.0653 0.07493,0.12051 0.07976,0.12257 0.0048,0.002 0.0088,0.008 0.0088,0.0137 0,0.005 0.02801,0.0511 0.06223,0.10133 0.03423,0.0503 0.06223,0.0963 0.06223,0.10227 0,0.006 0.0053,0.0109 0.01167,0.0109 0.0064,0 0.01498,0.009 0.01904,0.0198 0.0072,0.0194 0.04315,0.0744 0.06547,0.10014 0.0062,0.007 0.01895,0.0242 0.02828,0.0379 0.01366,0.02 0.07575,0.10365 0.189443,0.25525 0.04581,0.0611 0.147392,0.17907 0.209408,0.24321 0.04201,0.0434 0.07637,0.0813 0.07637,0.0841 0,0.003 0.0733,0.0779 0.162886,0.16698 0.152903,0.15195 0.200368,0.19569 0.340629,0.3139 0.03111,0.0262 0.07729,0.0664 0.102612,0.0893 0.02532,0.0228 0.08388,0.0721 0.130121,0.10944 0.04625,0.0373 0.08663,0.071 0.08974,0.0749 0.0031,0.004 0.03875,0.0332 0.0792,0.0652 0.04045,0.032 0.09324,0.0747 0.117316,0.0948 0.04839,0.0406 0.150397,0.11269 0.176871,0.12512 0.0093,0.005 0.03225,0.018 0.05092,0.0304 0.01867,0.0124 0.04668,0.0288 0.06223,0.0367 0.03326,0.0168 0.135666,0.0818 0.154553,0.0981 0.01814,0.0157 0.224592,0.12248 0.286728,0.14834 0.06237,0.026 0.06923,0.0264 0.109405,0.007 z m -0.109405,-0.24669 c -0.02178,-0.006 -0.04469,-0.0154 -0.05092,-0.0204 -0.0062,-0.005 -0.0495,-0.0288 -0.09618,-0.0529 -0.04668,-0.0241 -0.120503,-0.0671 -0.164066,-0.0956 -0.04356,-0.0284 -0.104663,-0.0664 -0.135779,-0.0842 -0.03112,-0.0179 -0.05827,-0.0365 -0.06035,-0.0414 -0.0021,-0.005 -0.0104,-0.009 -0.01852,-0.009 -0.01549,0 -0.217549,-0.14906 -0.239202,-0.17646 -0.0069,-0.009 -0.01573,-0.0159 -0.0196,-0.0159 -0.0039,0 -0.0248,-0.0165 -0.04651,-0.0367 -0.02172,-0.0202 -0.04609,-0.0419 -0.05418,-0.0481 -0.02274,-0.0175 -0.170416,-0.14389 -0.191088,-0.16353 -0.01014,-0.01 -0.05848,-0.0506 -0.107422,-0.091 -0.105834,-0.0875 -0.403875,-0.38293 -0.530731,-0.52615 -0.04961,-0.056 -0.09657,-0.1059 -0.104347,-0.11088 -0.0078,-0.005 -0.01414,-0.016 -0.01414,-0.0245 0,-0.009 -0.0045,-0.0172 -0.01009,-0.0193 -0.01403,-0.005 -0.103066,-0.11958 -0.103066,-0.13235 0,-0.005 -0.0076,-0.0134 -0.01697,-0.0169 -0.0093,-0.004 -0.01697,-0.0119 -0.01697,-0.0184 0,-0.006 -0.02466,-0.0436 -0.05481,-0.0824 -0.06958,-0.0895 -0.250698,-0.35664 -0.250698,-0.3698 0,-0.005 -0.0044,-0.0117 -0.0096,-0.0138 -0.0053,-0.002 -0.03456,-0.0463 -0.06506,-0.0983 -0.0305,-0.052 -0.06702,-0.11307 -0.08115,-0.13578 -0.01413,-0.0227 -0.02904,-0.0489 -0.03312,-0.0583 -0.004,-0.009 -0.01044,-0.0195 -0.01413,-0.0226 -0.0037,-0.003 -0.01308,-0.0184 -0.02086,-0.034 -0.0078,-0.0155 -0.0316,-0.0588 -0.05293,-0.0962 -0.04416,-0.0773 -0.209676,-0.4083 -0.209676,-0.4193 0,-0.004 -0.0069,-0.0233 -0.01544,-0.0429 -0.0085,-0.0196 -0.02466,-0.0586 -0.03595,-0.0866 -0.01127,-0.028 -0.02979,-0.0723 -0.04114,-0.0984 -0.01134,-0.0261 -0.02063,-0.0544 -0.02063,-0.0628 0,-0.008 -0.0047,-0.0202 -0.01028,-0.0261 -0.0057,-0.006 -0.02379,-0.0515 -0.04031,-0.10127 -0.01651,-0.0498 -0.03424,-0.10071 -0.0394,-0.11316 -0.0127,-0.0306 -0.08426,-0.26296 -0.113275,-0.36773 -0.01293,-0.0467 -0.03075,-0.11032 -0.03961,-0.14144 -0.0089,-0.0311 -0.0273,-0.10494 -0.041,-0.16406 -0.01369,-0.0591 -0.02917,-0.11768 -0.03438,-0.13012 -0.0052,-0.0124 -0.0149,-0.0579 -0.02152,-0.10094 -0.0066,-0.043 -0.01445,-0.0822 -0.01739,-0.087 -0.01274,-0.0206 -0.07081,-0.34776 -0.08414,-0.47401 -0.04318,-0.40897 -0.09654,-1.38366 -0.10933,-1.99713 l -0.0066,-0.31687 0.03818,-0.0137 c 0.021,-0.008 0.0611,-0.0167 0.0891,-0.0204 0.02801,-0.004 0.07129,-0.0117 0.09618,-0.0176 0.0249,-0.006 0.09872,-0.0186 0.164068,-0.0279 0.388934,-0.0555 0.935318,-0.15934 1.087551,-0.20666 0.02106,-0.006 0.0599,-0.0152 0.08631,-0.0194 0.02642,-0.004 0.05054,-0.0115 0.05361,-0.0165 0.003,-0.005 0.02843,-0.0124 0.05638,-0.0166 0.02793,-0.004 0.05348,-0.012 0.05677,-0.0173 0.0033,-0.005 0.02759,-0.0133 0.05401,-0.0176 0.02642,-0.005 0.06177,-0.015 0.07858,-0.0236 0.01681,-0.009 0.03811,-0.0156 0.04735,-0.0156 0.0092,0 0.03113,-0.006 0.04865,-0.0133 0.01752,-0.007 0.05222,-0.0194 0.07711,-0.027 0.02489,-0.008 0.07326,-0.0249 0.107491,-0.0387 0.03423,-0.0138 0.08133,-0.0302 0.104663,-0.0366 0.02334,-0.006 0.04243,-0.0162 0.04243,-0.0216 0,-0.005 0.0081,-0.01 0.01809,-0.01 0.0099,0 0.03413,-0.007 0.05375,-0.0162 0.01961,-0.009 0.06875,-0.0296 0.109201,-0.046 0.04045,-0.0163 0.08959,-0.037 0.109202,-0.046 0.01961,-0.009 0.03869,-0.0162 0.0424,-0.0162 0.0078,0 0.144445,-0.0625 0.408487,-0.18675 0.139262,-0.0655 0.185073,-0.0884 0.325471,-0.16237 0.06968,-0.0368 0.124573,-0.0582 0.148624,-0.0582 0.02539,0 0.101728,0.0322 0.228421,0.0962 0.104653,0.0529 0.196888,0.0962 0.204963,0.0962 0.0081,0 0.01469,0.005 0.01469,0.0113 0,0.006 0.0063,0.0113 0.01404,0.0113 0.0077,0 0.04973,0.0172 0.09335,0.0384 0.06842,0.0331 0.135281,0.0643 0.294287,0.13707 0.07733,0.0354 0.140623,0.0622 0.147095,0.0622 0.0061,0 0.06589,0.025 0.135779,0.0568 0.06205,0.0282 0.232629,0.091 0.264323,0.0974 0.0198,0.004 0.03874,0.0117 0.04209,0.017 0.0033,0.005 0.01393,0.01 0.02351,0.01 0.0096,0 0.03347,0.007 0.05308,0.0159 0.01961,0.009 0.08148,0.0296 0.13749,0.0463 0.05601,0.0167 0.112018,0.0345 0.124464,0.0397 0.02405,0.01 0.08507,0.0265 0.186696,0.0508 0.12959,0.031 0.210459,0.0515 0.243271,0.0619 0.01867,0.006 0.06195,0.0141 0.09618,0.0183 0.03423,0.004 0.06732,0.0116 0.07355,0.0162 0.0062,0.005 0.05688,0.0145 0.112567,0.0218 0.05569,0.007 0.105824,0.0162 0.111411,0.0196 0.0095,0.006 0.07034,0.0162 0.319138,0.0541 0.211072,0.0322 0.329214,0.0524 0.362077,0.0621 0.01867,0.005 0.0594,0.0133 0.09052,0.0173 0.03111,0.004 0.07312,0.013 0.09335,0.0202 l 0.03678,0.0128 -8.54e-4,0.13633 c -4.15e-4,0.075 -0.0054,0.23563 -0.01083,0.35698 -0.0055,0.12135 -0.01501,0.36066 -0.02118,0.5318 -0.0061,0.17114 -0.01688,0.37481 -0.0238,0.4526 -0.0069,0.0778 -0.0172,0.23563 -0.02284,0.35076 -0.02009,0.41018 -0.05578,0.67226 -0.146397,1.07492 -0.0133,0.0591 -0.02877,0.12785 -0.03435,0.15275 -0.01016,0.0452 -0.03769,0.15132 -0.08075,0.31116 -0.01257,0.0467 -0.02963,0.11032 -0.0379,0.14143 -0.0083,0.0312 -0.02598,0.0871 -0.03936,0.12447 -0.01337,0.0373 -0.02882,0.0832 -0.03432,0.10183 -0.01202,0.0407 -0.04601,0.13539 -0.07926,0.22065 -0.01334,0.0342 -0.02848,0.075 -0.03361,0.0905 -0.0087,0.0264 -0.03365,0.089 -0.05634,0.14143 -0.0054,0.0124 -0.02075,0.0481 -0.03414,0.0792 -0.0954,0.22163 -0.171275,0.36942 -0.313706,0.611 -0.171769,0.29135 -0.159812,0.27164 -0.204268,0.33664 -0.02023,0.0296 -0.03677,0.0568 -0.03677,0.0605 0,0.004 -0.0089,0.0183 -0.0198,0.0326 -0.01089,0.0143 -0.02744,0.0372 -0.03678,0.0509 -0.0093,0.0138 -0.02461,0.0345 -0.03395,0.0462 -0.0093,0.0117 -0.0348,0.0472 -0.05658,0.079 -0.126523,0.18467 -0.333597,0.44356 -0.457969,0.57254 -0.206435,0.21408 -0.297291,0.30297 -0.401879,0.39321 -0.02805,0.0242 -0.07822,0.0674 -0.111479,0.0962 -0.03327,0.0287 -0.07702,0.0678 -0.09724,0.087 -0.02022,0.0192 -0.07447,0.065 -0.120563,0.10179 -0.04609,0.0368 -0.08634,0.07 -0.08945,0.0738 -0.02899,0.0351 -0.271205,0.21388 -0.289851,0.21388 -0.0075,0 -0.01546,0.004 -0.01754,0.009 -0.0021,0.005 -0.03348,0.0267 -0.0698,0.0481 -0.09871,0.0582 -0.09975,0.0588 -0.154611,0.0965 -0.07941,0.0546 -0.320219,0.16622 -0.349355,0.16202 -0.0039,-5.6e-4 -0.02489,-0.006 -0.04667,-0.0123 z"
       id="path4666"
       inkscape:connector-curvature="0" />
    <path
       style="fill:#000000;fill-opacity:1;stroke-width:0.04547529"
       d="m 5.5568252,294.47476 c 0,-0.11367 -0.2593621,-0.68818 -0.3663846,-0.81167 l -0.097595,-0.1126 0.095103,0.0523 c 0.052307,0.0287 0.1815586,0.23162 0.2872258,0.45073 0.1056673,0.21911 0.2140742,0.39846 0.2409042,0.39859 0.026833,10e-5 0.1013986,-0.0515 0.1657072,-0.1145 0.093141,-0.0914 0.116925,-0.1577 0.116925,-0.32584 0,-0.51736 -0.333241,-1.04199 -0.8246083,-1.29818 -0.2638935,-0.13758 -0.7183277,-0.22445 -1.2099773,-0.2491 -0.6213405,-0.0311 -0.2348283,0.11474 -0.5050005,-0.26423 -0.097138,-0.13627 -0.3211574,-0.34656 -0.4252454,-0.40969 l -0.1892506,-0.11474 0.1394958,-0.0144 0.1394959,-0.0143 -0.00899,-1.08528 c -0.00492,-0.59689 0.00392,-1.23276 0.019734,-1.41305 l 0.02871,-0.32778 0.00648,0.3393 c 0.00355,0.18661 0.0192,0.33931 0.034751,0.33931 0.015551,0 0.054619,-0.0369 0.086828,-0.0819 0.032211,-0.0451 0.019491,0.029 -0.028271,0.1643 -0.073442,0.20823 -0.086828,0.36552 -0.086828,1.02022 0,0.82407 0.020351,0.92408 0.2303076,1.13173 0.058375,0.0578 0.1845457,0.14641 0.2803768,0.19703 0.2039698,0.10785 0.1326077,0.12754 -0.095717,0.0265 -0.209673,-0.0929 -0.1806048,-0.002 0.06265,0.19453 0.2196619,0.17795 0.4715611,0.22578 1.1889654,0.22578 0.4130877,0 0.5084534,-0.0136 0.5728718,-0.0819 0.0736,-0.0778 0.060509,-0.0821 -0.2746453,-0.0872 l -0.3519303,-0.005 0.300848,-0.0577 c 0.4468524,-0.0857 0.4435188,-0.0783 0.3848208,-0.84932 -0.027565,-0.36215 -0.036564,-0.89917 -0.020302,-1.21191 0.026548,-0.51043 0.012606,-0.69982 -0.089615,-1.21795 -0.023156,-0.11735 -0.010744,-0.10667 0.079045,0.0683 l 0.1065164,0.20754 0.1010166,-0.36039 c 0.055558,-0.19821 0.1091045,-0.35182 0.1189904,-0.34134 0.00989,0.0119 -0.026705,0.24773 -0.081314,0.52725 -0.088835,0.4547 -0.098359,0.62647 -0.090462,1.63141 0.00484,0.61775 0.028975,1.18814 0.053595,1.26757 0.051362,0.16563 0.254361,0.38732 0.4304051,0.47001 0.066266,0.0312 0.094837,0.0583 0.063489,0.0604 -0.03135,0.002 -0.1357434,-0.0388 -0.23199,-0.0909 -0.096246,-0.052 -0.1749932,-0.0763 -0.1749932,-0.0541 0,0.0705 0.1505349,0.18839 0.3742758,0.29321 0.1941991,0.091 0.2710609,0.0992 0.7495903,0.0787 0.552688,-0.0235 0.840827,-0.10323 0.8927919,-0.24655 0.040961,-0.11296 0.00839,-0.11949 -0.2250609,-0.0452 -0.118171,0.0376 -0.3160913,0.0656 -0.4398232,0.062 l -0.2249669,-0.005 0.2651309,-0.0326 c 0.3943709,-0.0484 0.5886108,-0.13025 0.6610264,-0.27857 0.1280251,-0.2622 0.1882286,-2.26936 0.094161,-3.13924 -0.016931,-0.15656 -0.013829,-0.17458 0.012082,-0.0702 0.01917,0.0772 0.060687,0.19132 0.092248,0.25355 l 0.057386,0.11308 0.061122,-0.11308 c 0.060908,-0.11272 0.061028,-0.1126 0.034978,0.0273 -0.014376,0.0772 -0.036409,0.172 -0.048956,0.21061 -0.012543,0.0386 -0.039054,0.43874 -0.058901,0.88917 -0.019848,0.45047 -0.050223,1.03008 -0.067495,1.28804 -0.031343,0.46814 -0.031173,0.46933 0.094216,0.62714 0.1148076,0.14451 0.1168684,0.15315 0.02393,0.10038 -0.1609303,-0.0912 -0.1588339,-0.0256 0.00527,0.16402 0.1335124,0.15429 0.18087,0.17736 0.404596,0.19701 0.3312114,0.0292 0.8902473,-0.0733 1.0130831,-0.18562 0.095339,-0.0872 0.094682,-0.0874 -0.1250991,-0.0643 -0.1588744,0.0167 -0.1837014,0.0135 -0.088378,-0.014 0.2065229,-0.0583 0.3188579,-0.13579 0.4346206,-0.29999 0.1928017,-0.27343 0.2135157,-0.43498 0.2210685,-1.72408 0.005,-0.84996 0.019687,-1.17153 0.048608,-1.06314 0.02281,0.0856 0.05442,0.16591 0.07024,0.1788 0.01583,0.0135 0.01441,0.46566 -0.0031,1.00618 -0.02921,0.89985 -0.04191,1.01241 -0.1504487,1.33378 -0.1710754,0.50656 -0.1815741,0.5948 -0.084913,0.71372 l 0.082599,0.10169 -0.1174283,-0.0784 c -0.1020066,-0.0681 -0.1207359,-0.0691 -0.1426104,-0.008 -0.071023,0.19602 0.3724464,0.35484 0.7166914,0.25668 0.28948,-0.0826 0.485337,-0.3001 0.697118,-0.77429 0.52024,-1.16487 0.539845,-1.67425 0.10537,-2.73778 -0.06916,-0.16932 -0.13816,-0.44447 -0.155595,-0.62056 -0.02698,-0.27246 -0.04948,-0.33254 -0.1621,-0.43291 -0.142652,-0.12714 -0.21023,-0.14893 -0.546733,-0.17644 -0.123156,-0.009 -0.29026,-0.0535 -0.3713436,-0.0962 -0.1735955,-0.0917 -0.1933011,-0.0952 -0.1532147,-0.0265 0.063583,0.10893 -0.1429522,-0.0541 -0.4991225,-0.39377 -0.4177192,-0.3985 -0.5188549,-0.43888 -1.1720331,-0.46791 -0.3914619,-0.0173 -0.4260382,-0.0127 -0.3756019,0.0562 0.050209,0.0682 0.047058,0.0687 -0.03283,0.006 -0.048608,-0.0376 -0.2093525,-0.18874 -0.3572112,-0.33571 -0.2960472,-0.29426 -0.4355627,-0.34657 -0.8315417,-0.31181 -0.2460306,0.0216 -0.4597032,0.13625 -0.8142128,0.43685 -0.1051799,0.0892 -0.2344315,0.16154 -0.2872253,0.16077 -0.08644,-0.001 -0.088297,-0.005 -0.018658,-0.0491 0.042534,-0.0262 0.077335,-0.0625 0.077337,-0.0806 4.3e-6,-0.018 -0.3032701,-0.0306 -0.6739422,-0.0279 -0.5876955,0.004 -0.6965631,0.0171 -0.8506366,0.10098 -0.2912089,0.15854 -0.5292115,0.49585 -0.6144707,0.87086 -0.016796,0.0739 -0.089301,0.21176 -0.1611262,0.3064 -0.2063186,0.27191 -0.3197612,0.66659 -0.3239581,1.12708 -0.00199,0.21877 -0.010196,0.32936 -0.018205,0.24569 -0.017493,-0.18249 -0.1213745,-0.20339 -0.192232,-0.0387 -0.058995,0.13714 -0.026868,0.3323 0.1161283,0.70558 0.1013449,0.26457 0.102193,0.27402 0.014655,0.1638 -0.055657,-0.0701 -0.1002066,-0.095 -0.1111066,-0.0623 -0.072358,0.21781 -0.3814337,0.82584 -0.5103721,1.00406 -0.2357041,0.32577 -0.5635469,0.56369 -0.5322564,0.77093 0.037191,0.24631 0.4209618,0.21827 0.652565,0.50778 0.1053893,0.13174 0.2320426,0.35287 0.281453,0.49138 0.1033738,0.28984 0.3789887,0.68413 0.4140353,0.59233 0.017499,-0.0459 0.033634,-0.0434 0.069656,0.0119 0.035441,0.053 0.047206,0.007 0.04823,-0.18721 7.824e-4,-0.14157 0.015963,-0.2817 0.033818,-0.31144 0.017855,-0.0297 0.032468,0.0998 0.032468,0.2876 0,0.27537 0.017137,0.36199 0.088377,0.44673 0.1969911,0.23433 0.678889,0.35038 0.9692706,0.23346 0.1009146,-0.0406 0.1133478,-0.0714 0.1133478,-0.2808 0,-0.2527 0.1046163,-0.4253 0.2540845,-0.41918 0.062713,0.002 0.059023,0.0127 -0.01952,0.0527 -0.1412443,0.0724 -0.1567253,0.16284 -0.065211,0.38144 0.095653,0.22847 0.2283419,0.37113 0.2283419,0.24549 0,-0.0425 -0.029716,-0.15574 -0.066045,-0.25144 l -0.066045,-0.17398 0.087651,0.10987 c 0.048258,0.0605 0.1106159,0.19103 0.1386814,0.29025 0.045614,0.16123 0.079693,0.19282 0.3208547,0.29736 0.314246,0.13625 0.4244824,0.14931 0.4244824,0.0503 z m -0.8036781,-0.99034 c 0.031898,-0.0135 0.070013,-0.0127 0.084694,0.004 0.014682,0.0154 -0.011415,0.0266 -0.057998,0.0246 -0.051475,-0.002 -0.061946,-0.0135 -0.026697,-0.0282 z m 4.2005432,-1.06744 c 0.030382,-0.0135 0.080091,-0.0135 0.1104717,0 0.030385,0.0136 0.00557,0.0235 -0.055239,0.0235 -0.060759,0 -0.085615,-0.0119 -0.055238,-0.0235 z"
       id="path4503"
       inkscape:connector-curvature="0"
       sodipodi:nodetypes="cccccccsccsccccsccsssssccccsccccsssccsccssccsscsccscscscccsccsscccsccccscccssccccscscscccccccccccsccscsccccscsccccccsscsccssscsccccccccccsscc" />
    <path
       style="fill:#000000;stroke:#5bffff;stroke-width:0.60000002;stroke-miterlimit:4;stroke-dasharray:none;stroke-opacity:1"
       d="m 32.581795,293.93481 c -1.034445,-0.0738 -1.969875,-0.58861 -2.604659,-1.43348 -0.280787,-0.37373 -0.523246,-0.9125 -0.618969,-1.37545 -0.09628,-0.46566 -0.09906,-0.97767 -0.0078,-1.42861 0.108858,-0.53765 0.331754,-1.01986 0.682455,-1.47642 0.103078,-0.1342 0.438949,-0.47288 0.580615,-0.58549 0.259925,-0.2066 0.667837,-0.43785 0.964316,-0.54668 0.358057,-0.13144 0.814903,-0.21957 1.138267,-0.21957 h 0.09937 l 0.330789,-0.32732 c 0.233888,-0.23143 0.346419,-0.33456 0.384147,-0.35203 0.06685,-0.0309 0.241648,-0.0412 0.34736,-0.0205 0.15243,0.0299 0.478087,0.1539 0.468188,0.17821 -0.01066,0.0262 -0.218795,0.29554 -0.228613,0.29587 -0.0065,2.2e-4 -0.05187,-0.0152 -0.100783,-0.0341 -0.104119,-0.0403 -0.273786,-0.0789 -0.301106,-0.0684 -0.06574,0.0253 0.03582,0.30933 0.22118,0.6187 0.08763,0.14628 0.125738,0.19804 0.139494,0.18954 0.0058,-0.003 0.149766,-0.18761 0.319865,-0.40891 0.170101,-0.22129 0.313705,-0.40509 0.31912,-0.40843 0.0054,-0.003 0.01933,0.0191 0.03091,0.05 0.03223,0.0858 0.131556,0.28034 0.197654,0.38713 0.135431,0.21879 0.389326,0.54046 0.566904,0.71822 0.185992,0.1862 0.56496,0.48977 0.77062,0.61733 0.10661,0.0662 0.301585,0.16619 0.370639,0.19021 0.02446,0.008 0.04447,0.0185 0.04447,0.0222 0,0.003 -0.186411,0.14537 -0.414248,0.3148 -0.227837,0.16943 -0.41459,0.31167 -0.415007,0.31608 -0.0013,0.0138 0.223928,0.14969 0.378677,0.2284 0.169341,0.0861 0.329936,0.14054 0.398349,0.13495 l 0.0463,-0.003 -0.0019,-0.056 c -0.0022,-0.0652 -0.02813,-0.15077 -0.07776,-0.2565 -0.01944,-0.0414 -0.03082,-0.0798 -0.02528,-0.0853 0.0056,-0.006 0.0741,-0.058 0.152358,-0.11668 l 0.142287,-0.1067 0.02665,0.0438 c 0.07177,0.11792 0.146108,0.34363 0.16197,0.49183 0.0092,0.0855 -0.0095,0.20639 -0.04295,0.27912 -0.01851,0.0402 -0.110677,0.14161 -0.335883,0.36962 l -0.310372,0.31421 -0.01316,0.21936 c -0.06431,1.07142 -0.557356,1.99524 -1.403559,2.62984 -0.547105,0.41029 -1.214569,0.65509 -1.912389,0.70136 -0.208959,0.0139 -0.267611,0.0138 -0.468566,-5.5e-4 z m 0.604443,-0.39681 c 0.376816,-0.0438 0.686426,-0.13555 1.037792,-0.30739 0.332191,-0.16248 0.575291,-0.33723 0.848722,-0.61014 0.35843,-0.35774 0.602933,-0.74899 0.75246,-1.20408 0.07567,-0.23029 0.146831,-0.5769 0.147551,-0.71861 l 2.24e-4,-0.0428 -0.115612,-0.007 c -0.151781,-0.008 -0.295838,-0.0551 -0.515874,-0.16665 -0.778283,-0.39446 -1.849218,-1.39196 -2.412076,-2.24666 -0.230733,-0.35037 -0.387711,-0.74602 -0.369238,-0.93062 l 0.0038,-0.0382 -0.06522,0.003 c -0.176586,0.009 -0.532525,0.0902 -0.750325,0.16957 -0.904321,0.32942 -1.628112,1.07165 -1.923986,1.97298 -0.194003,0.59099 -0.209865,1.22698 -0.04524,1.81416 0.322757,1.15126 1.269373,2.03619 2.429057,2.27076 0.29811,0.0602 0.674342,0.0759 0.977946,0.0405 z m -0.728944,-0.40308 c -0.270278,-0.0367 -0.552875,-0.11725 -0.788511,-0.22476 -0.772686,-0.35251 -1.341544,-1.0514 -1.522272,-1.87026 -0.05409,-0.24506 -0.06053,-0.3107 -0.06025,-0.6136 2.25e-4,-0.24884 0.0042,-0.31208 0.02713,-0.44094 0.05084,-0.28479 0.145636,-0.56633 0.270372,-0.80305 0.103552,-0.1965 0.164804,-0.28446 0.211755,-0.30409 0.07964,-0.0333 0.159929,-0.0168 0.215086,0.044 0.05592,0.0617 0.05748,0.0717 0.0649,0.4191 0.0079,0.37024 0.02482,0.48763 0.09841,0.68357 0.05328,0.14185 0.105324,0.2247 0.203076,0.3233 0.135107,0.13625 0.296441,0.21389 0.519788,0.25012 0.236036,0.0382 0.295035,0.0255 0.819795,-0.1772 0.46148,-0.17829 1.07882,-0.24496 1.452518,-0.15688 0.277529,0.0654 0.521309,0.16978 0.691745,0.29616 0.320214,0.23742 0.496789,0.54979 0.51466,0.91046 0.01124,0.22679 -0.0375,0.36477 -0.209597,0.59331 -0.442379,0.58749 -1.110313,0.97581 -1.842247,1.07107 -0.170825,0.0222 -0.501432,0.022 -0.666366,-2.9e-4 z m 3.680878,-3.06594 c 0.112172,-0.11168 0.199589,-0.2069 0.19427,-0.21146 -0.0053,-0.005 -0.03636,-0.018 -0.06896,-0.0298 -0.118811,-0.0431 -0.32036,-0.15168 -0.523387,-0.28199 -0.926815,-0.59481 -2.034851,-1.80261 -2.341304,-2.55211 -0.02133,-0.0521 -0.04029,-0.0969 -0.04215,-0.0994 -0.0019,-0.002 -0.09486,0.0828 -0.206709,0.18964 l -0.203351,0.19421 0.0059,0.0713 c 0.01693,0.20289 0.200129,0.55407 0.488311,0.9361 0.202895,0.26896 0.350442,0.43597 0.645627,0.73082 0.276429,0.2761 0.448784,0.43205 0.694852,0.62869 0.466296,0.37264 0.895449,0.61071 1.127818,0.62567 0.01771,0.001 0.08503,-0.058 0.229032,-0.20156 z m 0.777463,-1.89444 c -0.308214,-0.0906 -0.697812,-0.36004 -1.097821,-0.75932 -0.222529,-0.22213 -0.374826,-0.40392 -0.512163,-0.61133 -0.168267,-0.25412 -0.257034,-0.45795 -0.265918,-0.61065 -0.0044,-0.0762 -0.0013,-0.0964 0.02235,-0.1414 0.03587,-0.0684 0.08777,-0.0957 0.181726,-0.0957 0.429535,0 1.304287,0.69084 1.779134,1.40508 0.271757,0.40877 0.338274,0.73534 0.166394,0.8169 -0.05297,0.0251 -0.181766,0.0234 -0.273703,-0.003 z"
       id="path4511-1-1"
       inkscape:connector-curvature="0"
       sodipodi:nodetypes="cssssccscsscccccccsccccccsccscccccscsccccccsccccsscccssccccssscccscccscscscssssscscccccscccccssscccscccssccc" />
    <path
       style="fill:#000000;stroke:none;stroke-width:0.05;stroke-miterlimit:4;stroke-dasharray:none;stroke-opacity:1"
       d="m 32.618943,293.94573 c -1.034444,-0.0738 -1.969874,-0.58861 -2.604658,-1.43348 -0.280787,-0.37373 -0.523246,-0.9125 -0.618969,-1.37545 -0.09628,-0.46566 -0.09906,-0.97767 -0.0078,-1.42861 0.108858,-0.53765 0.331754,-1.01986 0.682455,-1.47642 0.103078,-0.1342 0.438949,-0.47288 0.580615,-0.58549 0.259925,-0.2066 0.667837,-0.43785 0.964316,-0.54668 0.358057,-0.13144 0.814903,-0.21957 1.138266,-0.21957 h 0.09937 l 0.330789,-0.32732 c 0.233888,-0.23143 0.346419,-0.33456 0.384147,-0.35203 0.06685,-0.0309 0.241648,-0.0412 0.34736,-0.0205 0.15243,0.0299 0.478087,0.1539 0.468188,0.17821 -0.01066,0.0262 -0.218795,0.29554 -0.228613,0.29587 -0.0065,2.2e-4 -0.05187,-0.0152 -0.100783,-0.0341 -0.104119,-0.0403 -0.273786,-0.0789 -0.301106,-0.0684 -0.06574,0.0253 0.03582,0.30933 0.22118,0.6187 0.08763,0.14628 0.125738,0.19804 0.139494,0.18954 0.0058,-0.003 0.149766,-0.18761 0.319865,-0.40891 0.170101,-0.22129 0.313705,-0.40509 0.31912,-0.40843 0.0054,-0.003 0.01933,0.0191 0.03091,0.05 0.03223,0.0858 0.131556,0.28034 0.197654,0.38713 0.135431,0.21879 0.389326,0.54046 0.566904,0.71822 0.185992,0.1862 0.56496,0.48977 0.77062,0.61733 0.10661,0.0662 0.301585,0.16619 0.370639,0.19021 0.02446,0.008 0.04447,0.0185 0.04447,0.0222 0,0.003 -0.18641,0.14537 -0.414247,0.3148 -0.227836,0.16943 -0.414589,0.31167 -0.415006,0.31608 -0.0013,0.0138 0.223928,0.14969 0.378677,0.2284 0.169339,0.0861 0.329935,0.14054 0.398349,0.13495 l 0.0463,-0.003 -0.0019,-0.056 c -0.0022,-0.0652 -0.02813,-0.15077 -0.07776,-0.2565 -0.01944,-0.0414 -0.03082,-0.0798 -0.02528,-0.0853 0.0056,-0.006 0.0741,-0.058 0.152358,-0.11668 l 0.142287,-0.1067 0.02665,0.0438 c 0.07177,0.11792 0.146107,0.34363 0.16197,0.49183 0.0092,0.0855 -0.0095,0.20639 -0.04295,0.27912 -0.01851,0.0402 -0.110677,0.14161 -0.335883,0.36962 l -0.310372,0.31421 -0.01316,0.21936 c -0.06431,1.07142 -0.557356,1.99524 -1.40356,2.62984 -0.547104,0.41029 -1.214568,0.65509 -1.912389,0.70136 -0.208958,0.0139 -0.26761,0.0138 -0.468565,-5.6e-4 z m 0.604443,-0.39681 c 0.376817,-0.0438 0.686426,-0.13555 1.037793,-0.30739 0.332192,-0.16248 0.575292,-0.33723 0.848723,-0.61014 0.35843,-0.35774 0.602933,-0.74899 0.752459,-1.20408 0.07567,-0.23029 0.146831,-0.5769 0.14755,-0.71861 l 2.26e-4,-0.0428 -0.115614,-0.007 c -0.151779,-0.008 -0.295838,-0.0551 -0.515873,-0.16665 -0.778283,-0.39446 -1.849217,-1.39196 -2.412076,-2.24666 -0.230733,-0.35037 -0.387711,-0.74602 -0.369238,-0.93062 l 0.0038,-0.0382 -0.06522,0.003 c -0.176585,0.009 -0.532525,0.0902 -0.750325,0.16957 -0.90432,0.32942 -1.628111,1.07165 -1.923985,1.97298 -0.194003,0.59099 -0.209865,1.22698 -0.04524,1.81416 0.322757,1.15126 1.269373,2.03619 2.429057,2.27076 0.29811,0.0602 0.674341,0.0759 0.977946,0.0405 z m 2.951934,-3.46902 c 0.112172,-0.11168 0.19959,-0.2069 0.194272,-0.21146 -0.0053,-0.005 -0.03636,-0.018 -0.06896,-0.0298 -0.118813,-0.0431 -0.320362,-0.15168 -0.523388,-0.28199 -0.926815,-0.59481 -2.034851,-1.80261 -2.341304,-2.55211 -0.02133,-0.0521 -0.04029,-0.0969 -0.04215,-0.0994 -0.0019,-0.002 -0.09486,0.0828 -0.206709,0.18964 l -0.203351,0.19421 0.0059,0.0713 c 0.01693,0.20289 0.200128,0.55407 0.488312,0.9361 0.202893,0.26896 0.35044,0.43597 0.645627,0.73082 0.276429,0.2761 0.448783,0.43205 0.69485,0.62869 0.466298,0.37264 0.89545,0.61071 1.127819,0.62567 0.01771,0.001 0.08503,-0.058 0.229031,-0.20156 z m 0.777464,-1.89444 c -0.308213,-0.0906 -0.697813,-0.36004 -1.097821,-0.75932 -0.222528,-0.22213 -0.374826,-0.40392 -0.512163,-0.61133 -0.168268,-0.25412 -0.257034,-0.45795 -0.265918,-0.61065 -0.0044,-0.0762 -0.0013,-0.0964 0.02235,-0.1414 0.03587,-0.0684 0.08777,-0.0957 0.181725,-0.0957 0.429536,0 1.304287,0.69084 1.779134,1.40508 0.271757,0.40877 0.338274,0.73534 0.166394,0.8169 -0.05297,0.0251 -0.181766,0.0234 -0.273703,-0.003 z"
       id="path4511-3-7"
       inkscape:connector-curvature="0"
       sodipodi:nodetypes="cssssccscsscccccccsccccccsccscccccscsccccccsccccsscccssccccssscccccscccccssscccccccsscccc" />
    <path
       inkscape:connector-curvature="0"
       id="path4562"
       d="m 87.09271,290.42991 v 2.04933 h -2.088683 v 0.95329 h 2.088683 v 2.15965 h 0.953281 v -2.15965 h 2.120202 v -0.95329 h -2.120202 v -2.04933 z"
       style="opacity:1;fill:#07fd07;fill-opacity:1;fill-rule:nonzero;stroke:#00b400;stroke-width:0.2019611;stroke-linecap:round;stroke-linejoin:round;stroke-miterlimit:4;stroke-dasharray:none;stroke-dashoffset:0;stroke-opacity:1;paint-order:markers stroke fill" />
    <path
       style="fill:#000000;stroke:#5bffff;stroke-width:0.51445651;stroke-miterlimit:4;stroke-dasharray:none;stroke-opacity:1"
       d="m 113.61957,293.42532 c -0.0413,-0.002 -0.12511,-0.008 -0.18608,-0.0134 -1.18239,-0.10824 -2.54291,-0.55137 -3.62861,-1.18188 -0.18418,-0.10696 -0.50984,-0.30233 -0.51979,-0.31184 -0.006,-0.006 -0.0159,-0.0204 -0.0218,-0.0324 -0.009,-0.0179 -0.0107,-0.0273 -0.0107,-0.0516 0,-0.0288 8e-4,-0.0314 0.0283,-0.0871 0.0486,-0.0986 0.066,-0.15274 0.11671,-0.36225 0.049,-0.20283 0.0517,-0.21642 0.12615,-0.6414 0.0562,-0.32134 0.10061,-0.52657 0.13595,-0.6295 0.008,-0.0218 0.17526,-0.45383 0.37287,-0.96012 0.21412,-0.54858 0.37358,-0.96283 0.39465,-1.02523 0.0388,-0.11503 0.0605,-0.17029 0.0886,-0.22647 0.0651,-0.12982 0.14602,-0.20789 0.29107,-0.28067 0.0226,-0.0114 0.051,-0.0273 0.063,-0.0356 0.012,-0.009 0.32966,-0.25176 0.70595,-0.54129 0.37628,-0.28954 0.69758,-0.53412 0.714,-0.54351 0.0372,-0.0213 0.0948,-0.0412 0.14394,-0.0497 0.0936,-0.0163 0.20564,0.006 0.28954,0.0565 0.0402,0.0244 0.75721,0.59917 0.79341,0.636 0.0762,0.0775 0.11562,0.16933 0.11973,0.27891 0.003,0.0769 -0.007,0.12866 -0.0375,0.19539 l -0.0138,0.0302 0.10381,0.15565 c 0.0571,0.0856 0.10801,0.16466 0.11314,0.17567 0.0142,0.0304 0.0132,0.0686 -0.003,0.10002 -0.0114,0.0229 -0.0299,0.0393 -0.43609,0.38765 -0.23328,0.20008 -0.43113,0.36857 -0.43967,0.37443 -0.0352,0.0242 -0.0111,0.026 -0.52302,-0.0381 -0.25474,-0.0318 -0.46418,-0.0568 -0.46545,-0.0556 -0.004,0.004 -0.0117,0.0953 -0.0167,0.19847 -0.008,0.1532 -8.6e-4,0.27178 0.0322,0.58728 0.0266,0.25271 0.032,0.32587 0.0344,0.46521 0.003,0.16813 -0.006,0.29623 -0.0297,0.42816 l -0.007,0.0401 0.0418,0.003 c 0.14159,0.009 0.28343,0.0371 0.41988,0.0834 0.0537,0.0183 0.15729,0.0601 0.18599,0.0751 0.01,0.005 0.0117,0.003 0.0693,-0.0551 0.17006,-0.1724 0.36476,-0.3003 0.59595,-0.39145 0.42677,-0.16827 0.90273,-0.18478 1.31702,-0.0457 l 0.0599,0.0202 0.041,-0.0365 c 0.0939,-0.0835 0.2052,-0.15923 0.32011,-0.21758 0.12069,-0.0613 0.2241,-0.1005 0.34495,-0.13083 0.13651,-0.0343 0.24966,-0.0483 0.39146,-0.0483 0.10602,-2e-5 0.17846,0.006 0.2686,0.0227 0.0946,0.0174 0.21042,0.0495 0.21053,0.0582 0.042,0.90393 -0.025,3.09518 -0.0683,3.07372 -8e-5,0.004 -0.0756,0.06 -0.12069,0.0889 -0.40847,0.26172 -1.11509,0.42618 -1.9697,0.45844 -0.11702,0.004 -0.32897,0.004 -0.4375,-5.4e-4 z"
       id="path4575"
       inkscape:connector-curvature="0"
       sodipodi:nodetypes="cccccsccccccccccccccccccccccccccccccccccccccccccccccc" />
  </g>
</svg>
